# xmcd
#
# Track frame offsets:
#	150
#	13459
#	30163
#	49203
#	71172
#	92440
#	114535
#	135634
#	154188
#	183274
#	198524
#	214912
#
# Disc length: 3087 seconds
#
# Revision: 1
# Processed by: cddbd v1.5.2PL0 Copyright (c) Steve Scherf et al.
# Submitted via: audiograbber 1.83.01
#
DISCID=a70c0d0c
DTITLE=Kamchatka - Bury Your Roots
DYEAR=2011
DGENRE=Blues
TTITLE0=Perfect
TTITLE1=Hindsight
TTITLE2=TV Blues
TTITLE3=The Same
TTITLE4=Demonbelly
TTITLE5=Good Night
TTITLE6=Bye Bye Mind´s Eye
TTITLE7=Puppet
TTITLE8=Before Things Get Rough
TTITLE9=Worried
TTITLE10=I´ve Got To Learn
TTITLE11=Bury Your Roots
EXTD=
EXTT0=
EXTT1=
EXTT2=
EXTT3=
EXTT4=
EXTT5=
EXTT6=
EXTT7=
EXTT8=
EXTT9=
EXTT10=
EXTT11=
PLAYORDER=
